<svg xmlns="http://www.w3.org/2000/svg" viewBox="0 0 156.5607 174.9326"><path d="M165.1136,112.8412a44.6824,44.6824,0,0,1,0-44.6824l1.035-1.7927a19.4271,19.4271,0,0,0-16.8243-29.1407h-2.07a44.6824,44.6824,0,0,1-38.6961-22.3412l-1.2337-2.1369a19.4272,19.4272,0,0,0-33.6488,0l-1.2337,2.1369A44.6824,44.6824,0,0,1,33.7458,37.2254h-2.07A19.4271,19.4271,0,0,0,14.8514,66.3661l1.035,1.7927a44.6824,44.6824,0,0,1,0,44.6824l-1.035,1.7927a19.4271,19.4271,0,0,0,16.8243,29.1407h2.07a44.6824,44.6824,0,0,1,38.6961,22.3412l1.2337,2.1369a19.4272,19.4272,0,0,0,33.6488,0l1.2337-2.1369a44.6824,44.6824,0,0,1,38.6961-22.3412h2.07a19.4271,19.4271,0,0,0,16.8243-29.1407Zm-21.797,17.3841c-.0985.1306-.1992.26-.2987.3893L96.2358,24.6356q.204.0176.4076.0363l17.5639,23.5288a48.5138,48.5138,0,0,1,23.7915,52.135Zm-105.3344.39c-.0972-.1269-.1956-.2528-.2919-.3805l5.3157-29.8778,0,.0013A48.5124,48.5124,0,0,1,66.7754,48.2105l17.57-23.5376q.209-.0195.4185-.0373ZM90.5,65.2919l11.8785,29.582H78.6218ZM57.39,147.71l13.6625-33.7834h38.8945L123.61,147.71c-.0948.0551-.1887.1115-.2839.1662l-10.7817-14.18h0a48.45,48.45,0,0,1-44.0822.0032L57.68,147.88C57.5831,147.8238,57.4872,147.7664,57.39,147.71Z" transform="translate(-12.2196 -3.0337)"/></svg>