<svg xmlns="http://www.w3.org/2000/svg" width="256" height="256" viewBox="0 0 256 256"><path d="M234.86,159.997c-11.431-19.8-11.431-44.194,0-63.993l1.482-2.567 c10.709-18.549-2.677-41.735-24.096-41.735h-2.965c-22.863,0-43.989-12.197-55.42-31.997l-1.767-3.061 c-10.709-18.549-37.482-18.549-48.191,0l-1.767,3.061c-11.431,19.8-32.557,31.997-55.42,31.997h-2.965 c-21.418,0-34.805,23.186-24.096,41.735l1.482,2.568c11.431,19.8,11.431,44.194,0,63.993l-1.482,2.568 c-10.709,18.549,2.677,41.735,24.096,41.735h2.965c22.863,0,43.989,12.197,55.42,31.997l1.767,3.061 c10.709,18.549,37.482,18.549,48.191,0l1.767-3.061c11.431-19.8,32.557-31.997,55.42-31.997h2.965 c21.418,0,34.805-23.186,24.096-41.735L234.86,159.997z M202.321,185.736c-0.021,0.027-0.042,0.055-0.063,0.083L135.296,34.127 c0.009,0.001,0.018,0.002,0.027,0.002l25.867,34.652c20.698,11.646,34.712,33.825,34.712,59.219c0,4.717-0.485,9.322-1.404,13.77 L202.321,185.736z M53.743,185.819c-0.018-0.023-0.036-0.047-0.054-0.07l7.819-43.95c0,0.001,0,0.001,0,0.002 c-0.924-4.458-1.411-9.073-1.411-13.801c0-25.384,14.003-47.555,34.688-59.205l25.876-34.664c0.014-0.001,0.028-0.003,0.043-0.004 L53.743,185.819z M128,92.709l16.63,41.415H111.37L128,92.709z M81.043,209.586l19.731-48.788h54.452l19.73,48.788 c-0.01,0.006-0.02,0.012-0.03,0.018l-16.065-21.128c0,0,0,0,0,0c-9.265,4.747-19.756,7.428-30.862,7.428 c-11.102,0-21.59-2.679-30.853-7.423l-16.066,21.128C81.069,209.601,81.056,209.593,81.043,209.586z"/>
</svg>